<?xml version="1.0" encoding="UTF-8"?>
<!DOCTYPE svg PUBLIC "-//W3C//DTD SVG 1.1//EN" "http://www.w3.org/Graphics/SVG/1.1/DTD/svg11.dtd">
<svg xmlns="http://www.w3.org/2000/svg" version="1.1" width="487px" height="512px" style="shape-rendering:geometricPrecision; text-rendering:geometricPrecision; image-rendering:optimizeQuality; fill-rule:evenodd; clip-rule:evenodd" xmlns:xlink="http://www.w3.org/1999/xlink">
<g><path style="opacity:0.263" fill="#000000" d="M 271.5,3.5 C 272.573,4.25057 272.74,5.25057 272,6.5C 270.272,5.64767 270.105,4.64767 271.5,3.5 Z"/></g>
<g><path style="opacity:0.79" fill="#000000" d="M 272.5,12.5 C 272.735,11.9033 273.235,11.5699 274,11.5C 275.274,12.5353 276.44,13.702 277.5,15C 277.167,15.3333 276.833,15.6667 276.5,16C 277.931,16.4652 279.097,17.2986 280,18.5C 280.36,20.6079 281.027,22.6079 282,24.5C 283.563,25.7252 284.73,27.2252 285.5,29C 282.944,30.9008 281.111,33.4008 280,36.5C 279.667,36.1667 279.333,35.8333 279,35.5C 275.464,38.4851 272.297,38.1518 269.5,34.5C 267.983,35.9108 266.649,35.7441 265.5,34C 267.434,31.7287 267.434,29.7287 265.5,28C 267.125,27.1475 267.458,26.1475 266.5,25C 269.974,21.8681 272.641,18.2015 274.5,14C 273.956,13.2828 273.289,12.7828 272.5,12.5 Z"/></g>
<g><path style="opacity:0.379" fill="#000000" d="M 287.5,20.5 C 289.76,21.2376 289.927,22.2376 288,23.5C 286.272,22.6477 286.105,21.6477 287.5,20.5 Z"/></g>
<g><path style="opacity:0.347" fill="#000000" d="M 287.5,30.5 C 287.897,29.475 288.563,29.3083 289.5,30C 288.906,30.4643 288.239,30.631 287.5,30.5 Z"/></g>
<g><path style="opacity:0.5" fill="#000000" d="M 300.5,31.5 C 300.897,30.475 301.563,30.3083 302.5,31C 301.906,31.4643 301.239,31.631 300.5,31.5 Z"/></g>
<g><path style="opacity:0.737" fill="#000000" d="M 306.5,35.5 C 308.912,35.6941 309.912,37.0274 309.5,39.5C 308.167,39.5 306.833,39.5 305.5,39.5C 305.433,38.0413 305.766,36.7079 306.5,35.5 Z"/></g>
<g><path style="opacity:0.484" fill="#000000" d="M 294.5,36.5 C 296.337,36.6395 296.67,37.3061 295.5,38.5C 294.702,38.0431 294.369,37.3764 294.5,36.5 Z"/></g>
<g><path style="opacity:0.576" fill="#000000" d="M 272.5,41.5 C 272.74,38.7067 273.74,38.2067 275.5,40C 274.756,41.0386 273.756,41.5386 272.5,41.5 Z"/></g>
<g><path style="opacity:0.937" fill="#000000" d="M 272.5,41.5 C 273.265,44.0961 273.599,46.7628 273.5,49.5C 275.677,49.4139 277.677,48.7472 279.5,47.5C 281.832,49.3885 284.165,49.7218 286.5,48.5C 288.776,51.7136 291.776,54.0469 295.5,55.5C 298.032,59.2586 301.032,61.7586 304.5,63C 303.833,63.3333 303.167,63.6667 302.5,64C 303.167,66.3333 303.833,68.6667 304.5,71C 304.167,71.3333 303.833,71.6667 303.5,72C 307.468,74.9403 311.802,76.107 316.5,75.5C 323.51,78.8923 330.843,81.3923 338.5,83C 343.916,85.7578 348.75,89.2578 353,93.5C 353.333,93.1667 353.667,92.8333 354,92.5C 359.113,95.325 364.279,98.1584 369.5,101C 375.782,107.531 381.615,114.364 387,121.5C 395.413,128.892 402.746,136.225 409,143.5C 405.492,141.413 402.158,139.08 399,136.5C 398.333,137.167 398.333,137.833 399,138.5C 402.095,142.392 405.262,146.226 408.5,150C 412.047,150.737 414.88,152.57 417,155.5C 421.909,163.079 427.575,170.079 434,176.5C 436.861,180.888 439.194,185.554 441,190.5C 444.159,202.804 447.159,215.137 450,227.5C 450.42,244.397 450.92,260.564 451.5,276C 450.599,278.871 449.599,281.704 448.5,284.5C 447.726,285.711 446.893,285.711 446,284.5C 446.347,280.579 445.514,276.746 443.5,273C 443.029,268.299 443.695,263.632 445.5,259C 443.573,253.761 441.24,248.761 438.5,244C 438.833,243.667 439.167,243.333 439.5,243C 437.9,236.433 436.067,229.933 434,223.5C 434.002,232.857 434.668,242.19 436,251.5C 436.322,267.536 436.489,283.536 436.5,299.5C 436,302.5 435.5,305.5 435,308.5C 432.147,314.239 429.147,319.906 426,325.5C 425.524,331.864 423.857,337.864 421,343.5C 415.667,350.829 410.833,358.496 406.5,366.5C 403.952,369.759 401.286,372.926 398.5,376C 394.761,376.335 391.094,377.668 387.5,380C 381.202,383.971 375.535,388.638 370.5,394C 370.833,394.333 371.167,394.667 371.5,395C 363.547,400.618 355.88,406.618 348.5,413C 343.945,414.571 340.278,417.238 337.5,421C 338.711,421.893 338.711,422.726 337.5,423.5C 336.808,422.975 336.308,422.308 336,421.5C 334.533,424.266 332.7,426.766 330.5,429C 324.833,431.333 319.167,433.667 313.5,436C 312.44,437.298 311.274,438.465 310,439.5C 307.332,438.33 304.998,436.663 303,434.5C 301.415,439.758 298.582,444.258 294.5,448C 295.523,452.238 296.857,456.405 298.5,460.5C 296.224,467.719 292.89,474.386 288.5,480.5C 283.388,480.635 278.721,478.968 274.5,475.5C 273.738,476.628 273.071,477.795 272.5,479C 270.385,479.557 268.385,480.391 266.5,481.5C 262.636,479.829 258.636,479.329 254.5,480C 253.977,485.925 253.144,491.758 252,497.5C 246.866,493.367 242.032,488.867 237.5,484C 231.813,481.946 226.813,483.113 222.5,487.5C 218.542,485.068 214.209,483.568 209.5,483C 205.952,481.059 202.286,479.393 198.5,478C 197.328,475.304 195.328,473.637 192.5,473C 188.629,468.093 185.129,462.926 182,457.5C 181.333,456.167 181.333,454.833 182,453.5C 184.937,456.732 187.437,456.732 189.5,453.5C 187.911,447.95 186.911,442.283 186.5,436.5C 182.182,435.057 177.682,434.057 173,433.5C 172.228,433.645 171.561,433.978 171,434.5C 163.812,432.884 156.645,431.051 149.5,429C 147.356,426.021 145.022,423.188 142.5,420.5C 140.246,424.007 138.246,427.673 136.5,431.5C 138.49,434.889 138.99,438.556 138,442.5C 135.578,446.344 132.911,450.01 130,453.5C 129.963,451.729 130.13,449.896 130.5,448C 130.333,446.833 130.167,445.667 130,444.5C 126.601,450.568 122.435,456.068 117.5,461C 118.022,461.561 118.355,462.228 118.5,463C 117.683,464.49 116.85,465.99 116,467.5C 106.237,479.353 96.2368,491.02 86,502.5C 84.3697,505.629 82.5364,508.629 80.5,511.5C 68.1667,511.5 55.8333,511.5 43.5,511.5C 47.216,490.523 53.0494,470.19 61,450.5C 70.1977,435.979 79.3644,421.479 88.5,407C 85.9919,405.55 83.3252,404.383 80.5,403.5C 73.3554,395.517 66.3554,387.35 59.5,379C 59.8739,376.873 59.3739,374.707 58,372.5C 56.1238,370.297 54.2905,368.13 52.5,366C 52.9054,365.055 53.572,364.388 54.5,364C 53.8724,361.2 52.8724,358.533 51.5,356C 51.8333,355.667 52.1667,355.333 52.5,355C 40.9761,337.925 32.6428,319.425 27.5,299.5C 27.4363,297.611 27.9363,295.944 29,294.5C 30.5862,296.67 31.9196,299.004 33,301.5C 32.2413,291.051 31.408,280.551 30.5,270C 31.5442,264.158 33.2108,258.491 35.5,253C 36.4812,246.131 37.6479,239.297 39,232.5C 39.414,232.043 39.914,231.709 40.5,231.5C 41.3078,233.423 41.8078,235.423 42,237.5C 42.8368,234.635 43.6702,231.802 44.5,229C 44.1667,228.667 43.8333,228.333 43.5,228C 45.6341,223.575 48.1341,219.409 51,215.5C 51.9958,210.508 53.8291,205.841 56.5,201.5C 59.5265,200.335 62.5265,199.335 65.5,198.5C 67.8333,193.833 70.1667,189.167 72.5,184.5C 73.1476,186.149 74.1476,187.482 75.5,188.5C 77.3159,187.185 78.9825,185.685 80.5,184C 81.4835,183.409 82.1501,183.743 82.5,185C 79.9606,188.574 77.7939,192.407 76,196.5C 75.0998,200.662 74.5998,204.662 74.5,208.5C 73.635,209.583 72.635,209.749 71.5,209C 69.5516,208.017 67.7183,206.85 66,205.5C 65.1475,207.125 64.1475,207.458 63,206.5C 61.5733,212.343 59.4067,217.843 56.5,223C 57.9908,227.362 56.6574,230.529 52.5,232.5C 51.352,235.289 50.0186,237.956 48.5,240.5C 49.9023,241.842 49.5689,242.676 47.5,243C 46.4833,246.138 46.4833,249.638 47.5,253.5C 49.1172,251.879 50.2838,249.879 51,247.5C 51.2617,257.099 49.4284,266.266 45.5,275C 46.1667,276.333 47.1667,277.333 48.5,278C 47.4238,279.726 47.2571,281.559 48,283.5C 50.9381,286.548 51.1048,289.881 48.5,293.5C 49.1367,298.195 49.97,302.862 51,307.5C 51.3457,304.424 52.0124,301.424 53,298.5C 54.3959,307.742 55.3959,317.075 56,326.5C 60.0452,333.96 63.7119,341.627 67,349.5C 72.5608,355.608 77.8941,361.941 83,368.5C 86.113,371.452 89.613,373.785 93.5,375.5C 94.3078,373.577 94.8078,371.577 95,369.5C 95.5,370.5 96,371.5 96.5,372.5C 96.2176,374.987 96.2176,377.653 96.5,380.5C 97.5,380.5 98.5,380.5 99.5,380.5C 99.6744,383.874 100.174,387.207 101,390.5C 104.701,384.294 108.201,377.96 111.5,371.5C 110.833,371.167 110.167,370.833 109.5,370.5C 111.889,365.935 112.056,361.601 110,357.5C 104.805,359.358 100.805,362.692 98,367.5C 96.4263,366.016 95.093,364.349 94,362.5C 93.6667,363.167 93.3333,363.833 93,364.5C 92.3017,359.627 90.9683,354.96 89,350.5C 88.7361,345.137 88.2361,339.803 87.5,334.5C 88.7762,321.315 89.9429,307.982 91,294.5C 92.6731,289.823 94.3398,285.157 96,280.5C 97.1058,277.274 98.9391,274.607 101.5,272.5C 102.154,270.885 102.654,269.218 103,267.5C 107.121,264.179 110.954,260.513 114.5,256.5C 115.167,258.167 115.833,259.833 116.5,261.5C 117.532,259.96 118.865,259.46 120.5,260C 122.246,263.914 125.246,266.08 129.5,266.5C 131.527,265.307 133.027,263.64 134,261.5C 134.483,262.448 134.649,263.448 134.5,264.5C 135.822,264.67 136.989,264.337 138,263.5C 138.822,261.212 139.489,258.878 140,256.5C 144.336,255.545 146.002,252.545 145,247.5C 144.667,247.833 144.333,248.167 144,248.5C 143.782,245.574 143.282,242.74 142.5,240C 138.953,240.816 135.786,242.65 133,245.5C 134.194,241.588 136.361,238.088 139.5,235C 138.874,234.25 138.374,233.416 138,232.5C 137.29,233.973 136.124,234.64 134.5,234.5C 134.741,231.001 133.908,230.668 132,233.5C 131.734,228.931 130.734,224.597 129,220.5C 127.667,221.167 126.667,222.167 126,223.5C 125.611,228.102 125.445,232.436 125.5,236.5C 120.529,233.362 115.696,230.028 111,226.5C 102.769,211.432 103.103,196.432 112,181.5C 118.333,172.5 124.667,163.5 131,154.5C 133.225,150.719 134.891,146.719 136,142.5C 137.772,146.43 138.938,146.097 139.5,141.5C 139.392,140.558 139.059,139.725 138.5,139C 139.808,136.645 140.808,134.145 141.5,131.5C 143.517,130.826 145.183,129.659 146.5,128C 146.161,119.844 147.994,112.011 152,104.5C 157.061,99.3733 161.394,93.7066 165,87.5C 165.305,89.5568 165.305,91.5568 165,93.5C 166.205,92.9288 167.372,92.2621 168.5,91.5C 167.48,89.5675 167.313,87.5675 168,85.5C 169.833,83.6667 171.667,81.8333 173.5,80C 173.167,79.6667 172.833,79.3333 172.5,79C 175.215,78.1224 177.549,76.6224 179.5,74.5C 180.265,75.6119 181.265,76.2786 182.5,76.5C 178.441,82.9158 173.774,88.9158 168.5,94.5C 169.242,95.2868 170.075,95.9535 171,96.5C 173.365,93.1309 176.532,90.9643 180.5,90C 183.167,86.6667 186.167,83.6667 189.5,81C 196.67,78.0615 203.503,74.5615 210,70.5C 210.873,70.7355 211.707,71.0688 212.5,71.5C 220.875,68.2572 229.542,66.0906 238.5,65C 241.127,63.1031 243.961,61.6031 247,60.5C 248.509,61.0897 250.009,61.7564 251.5,62.5C 252.5,64.8333 254.167,66.5 256.5,67.5C 257.086,67.2907 257.586,66.9574 258,66.5C 262.754,67.6578 267.588,68.1578 272.5,68C 273.258,66.6361 272.758,65.4695 271,64.5C 270.163,62.1617 269.33,59.8284 268.5,57.5C 269.467,55.2383 270.134,52.905 270.5,50.5C 265.053,49.2744 263.719,46.2744 266.5,41.5C 268.482,40.3775 270.482,40.3775 272.5,41.5 Z M 297.5,69.5 C 299.355,69.272 300.188,69.9387 300,71.5C 297.192,72.8596 296.359,72.1929 297.5,69.5 Z M 184.5,114.5 C 181.314,114.895 178.314,115.895 175.5,117.5C 174.707,116.645 175.04,115.811 176.5,115C 181.569,112.134 186.902,109.801 192.5,108C 198.683,107.382 204.849,107.549 211,108.5C 220.431,106.717 229.931,105.384 239.5,104.5C 239.561,102.408 240.561,100.908 242.5,100C 241.366,98.984 241.699,98.3173 243.5,98C 240.695,95.3151 241.362,93.6484 245.5,93C 255.801,92.7262 265.801,94.3928 275.5,98C 285.861,108.508 298.527,114.175 313.5,115C 323.17,119.252 332.336,124.419 341,130.5C 341.718,129.549 342.551,129.383 343.5,130C 346.183,132.847 349.183,135.347 352.5,137.5C 353.106,139.709 353.773,141.876 354.5,144C 361.638,148.324 368.138,153.491 374,159.5C 379,168.833 384,178.167 389,187.5C 389.333,185.5 389.667,183.5 390,181.5C 396.112,192.52 401.445,203.853 406,215.5C 407.782,224.588 408.949,233.755 409.5,243C 407.786,254.112 407.286,265.279 408,276.5C 409.759,279.663 411.759,279.996 414,277.5C 411.991,296.851 404.991,314.185 393,329.5C 392.667,328.5 392.333,327.5 392,326.5C 391.581,327.672 390.915,328.672 390,329.5C 387.622,343.418 382.122,355.918 373.5,367C 365.7,369.978 359.866,375.144 356,382.5C 349.484,388.343 341.984,392.51 333.5,395C 332.101,398.064 329.768,400.064 326.5,401C 322.527,402.799 318.861,403.299 315.5,402.5C 312.025,403.095 309.025,404.429 306.5,406.5C 307.481,401.154 309.481,396.154 312.5,391.5C 313.729,390.719 315.062,390.219 316.5,390C 317.747,388.506 317.747,387.006 316.5,385.5C 316.704,386.529 316.204,387.529 315,388.5C 314.313,386.432 314.48,384.432 315.5,382.5C 315,381.5 314.5,380.5 314,379.5C 313.027,381.392 312.36,383.392 312,385.5C 311.054,383.212 309.887,381.045 308.5,379C 309.167,378.667 309.833,378.333 310.5,378C 309.167,377 309.167,376 310.5,375C 309.584,374.626 308.75,374.126 308,373.5C 306.833,370.667 305.667,367.833 304.5,365C 306.411,362.867 308.077,360.534 309.5,358C 308.833,357.333 308.167,356.667 307.5,356C 308.803,352.532 308.803,349.032 307.5,345.5C 307.977,344.069 308.643,342.736 309.5,341.5C 311.432,340.855 312.599,339.521 313,337.5C 314.328,340.786 315.661,344.119 317,347.5C 316.665,335.476 315.665,323.476 314,311.5C 312.304,307.275 310.471,303.108 308.5,299C 310.185,296.312 312.519,294.312 315.5,293C 313.5,290 311.5,287 309.5,284C 310.448,283.517 311.448,283.351 312.5,283.5C 312.608,285.783 313.441,287.783 315,289.5C 315.667,288.833 316.333,288.167 317,287.5C 317.837,289.844 319.171,291.844 321,293.5C 321.691,291.109 322.691,291.109 324,293.5C 324.101,290.3 324.768,287.3 326,284.5C 327.333,286.5 328.667,288.5 330,290.5C 330.654,291.696 331.154,291.696 331.5,290.5C 327.16,278.332 328.326,277.665 335,288.5C 337.733,285.355 341.233,283.522 345.5,283C 351.348,276.985 357.348,271.152 363.5,265.5C 365.425,260.315 366.759,254.982 367.5,249.5C 367.023,248.522 366.357,247.689 365.5,247C 366.34,245.334 365.84,245.167 364,246.5C 362.89,244.963 361.39,244.297 359.5,244.5C 359.5,242.5 359.5,240.5 359.5,238.5C 357.857,238.48 356.524,239.147 355.5,240.5C 351.814,237.543 347.814,235.043 343.5,233C 345.106,223.539 341.606,216.373 333,211.5C 332.667,212.5 332.333,213.5 332,214.5C 327.622,211.851 323.455,208.851 319.5,205.5C 317.532,200.495 313.865,197.329 308.5,196C 307.072,193.815 305.405,191.815 303.5,190C 299.73,188.699 296.563,186.533 294,183.5C 286.244,181.075 280.244,176.409 276,169.5C 275.075,165.054 273.575,160.888 271.5,157C 272.692,155.055 272.692,153.055 271.5,151C 271.89,147.824 273.39,145.324 276,143.5C 276.49,142.207 276.657,140.873 276.5,139.5C 279.5,139.833 280.833,138.5 280.5,135.5C 282.912,135.756 284.579,134.756 285.5,132.5C 284.422,123.369 279.255,118.702 270,118.5C 263.62,120.732 260.953,125.399 262,132.5C 261.066,135.88 259.399,138.88 257,141.5C 248.107,136.926 240.274,138.26 233.5,145.5C 228.39,153.018 227.39,161.018 230.5,169.5C 230.192,170.308 229.692,170.975 229,171.5C 224.781,168.948 221.614,165.448 219.5,161C 210.307,154.464 201.141,147.964 192,141.5C 188.741,142.765 186.074,144.765 184,147.5C 183.692,146.692 183.192,146.025 182.5,145.5C 181.289,150.09 180.456,154.757 180,159.5C 176.751,161.734 174.751,164.734 174,168.5C 170.355,162.859 166.022,157.859 161,153.5C 160.727,151.899 160.227,150.399 159.5,149C 162.587,142.075 165.087,134.908 167,127.5C 172.171,122.147 178.004,117.814 184.5,114.5 Z M 391.5,148.5 C 389.661,147.492 388.328,145.992 387.5,144C 389.583,144.559 390.916,146.059 391.5,148.5 Z M 199.5,194.5 C 201.413,191.678 203.079,188.678 204.5,185.5C 204.167,184.833 203.833,184.167 203.5,183.5C 201.587,184.373 199.753,185.373 198,186.5C 197.035,182.218 197.702,178.218 200,174.5C 201.406,175.668 202.572,175.335 203.5,173.5C 207.449,175.982 210.783,179.149 213.5,183C 208.987,187.081 204.32,190.914 199.5,194.5 Z M 186.5,178.5 C 193.677,179.335 194.177,182.002 188,186.5C 186.988,192.758 185.821,192.424 184.5,185.5C 185.937,183.423 186.604,181.09 186.5,178.5 Z M 212.5,190.5 C 216.3,190.819 216.466,191.819 213,193.5C 212.044,197.342 211.21,201.175 210.5,205C 207.359,203.402 203.859,202.236 200,201.5C 199.175,199.299 199.675,197.466 201.5,196C 203.37,194.634 205.37,193.467 207.5,192.5C 209.867,193.822 211.533,193.155 212.5,190.5 Z M 261.5,197.5 C 264.913,199.055 268.247,200.888 271.5,203C 276.297,208.509 280.964,214.176 285.5,220C 286.966,220.635 288.3,221.469 289.5,222.5C 290.086,222.291 290.586,221.957 291,221.5C 292.333,224.167 294.333,226.167 297,227.5C 297.851,230.053 297.518,232.386 296,234.5C 292.589,233.707 289.089,233.207 285.5,233C 283.741,231.992 282.574,230.492 282,228.5C 281.751,229.624 281.251,230.624 280.5,231.5C 275.611,222.666 270.445,213.999 265,205.5C 264.51,204.207 264.343,202.873 264.5,201.5C 262.833,201.5 261.167,201.5 259.5,201.5C 259.527,199.801 260.194,198.467 261.5,197.5 Z M 254.5,218.5 C 257.601,221.835 260.601,225.335 263.5,229C 262.696,230.771 261.529,232.271 260,233.5C 258.269,231.383 256.102,229.883 253.5,229C 253.833,228.667 254.167,228.333 254.5,228C 252.616,227.784 250.949,227.117 249.5,226C 251.192,223.497 252.859,220.997 254.5,218.5 Z M 47.5,253.5 C 48.4104,255.501 47.5771,256.835 45,257.5C 44.3076,256.975 43.8076,256.308 43.5,255.5C 44.5217,254.646 45.3551,253.646 46,252.5C 46.3826,253.056 46.8826,253.389 47.5,253.5 Z M 42.5,260.5 C 43.5251,261.374 44.1918,262.541 44.5,264C 43.622,267.286 43.2887,270.453 43.5,273.5C 42.5078,269.217 42.1744,264.884 42.5,260.5 Z M 189.5,390.5 C 188.624,390.369 187.957,390.702 187.5,391.5C 183.613,396.198 182.113,401.532 183,407.5C 184.363,409.929 185.53,412.429 186.5,415C 184.989,418.822 183.989,418.988 183.5,415.5C 179.751,416.652 176.251,415.985 173,413.5C 171.938,408.577 171.105,403.577 170.5,398.5C 163.268,398.773 160.102,395.44 161,388.5C 164.56,380.379 168.893,372.712 174,365.5C 174.96,379.194 176.293,379.528 178,366.5C 179.387,362.725 181.054,359.058 183,355.5C 185,358.167 187,360.833 189,363.5C 189.535,361.729 190.369,361.396 191.5,362.5C 192.593,366.454 194.26,370.12 196.5,373.5C 195.675,374.386 194.675,374.719 193.5,374.5C 191.389,371.102 188.556,367.435 185,363.5C 184.308,364.025 183.808,364.692 183.5,365.5C 187.13,373.726 189.13,382.059 189.5,390.5 Z M 290.5,427.5 C 291.097,427.735 291.43,428.235 291.5,429C 290.214,433.83 289.38,438.663 289,443.5C 288.07,437.986 288.57,432.652 290.5,427.5 Z"/></g>
<g><path style="opacity:0.027" fill="#000000" d="M 182.5,75.5 C 183.833,76.1667 183.833,76.1667 182.5,75.5 Z"/></g>
<g><path style="opacity:0.021" fill="#000000" d="M 169.5,78.5 C 170.776,79.3864 170.776,80.3864 169.5,81.5C 168.913,80.7666 168.913,79.7666 169.5,78.5 Z"/></g>
<g><path style="opacity:0.008" fill="#000000" d="M 175.5,87.5 C 176.833,88.1667 176.833,88.1667 175.5,87.5 Z"/></g>
<g><path style="opacity:0.423" fill="#000000" d="M 249.5,102.5 C 258.522,103.089 267.189,105.256 275.5,109C 270.51,108.674 265.677,107.507 261,105.5C 260.517,106.448 260.351,107.448 260.5,108.5C 258.533,108.261 256.699,108.594 255,109.5C 253.266,108.751 251.433,108.251 249.5,108C 248.248,106.172 248.248,104.339 249.5,102.5 Z"/></g>
<g><path style="opacity:0.126" fill="#000000" d="M 186.5,113.5 C 187.688,112.636 188.855,111.636 190,110.5C 192.305,110.579 194.805,110.746 197.5,111C 194.204,113.828 190.538,114.662 186.5,113.5 Z"/></g>
<g><path style="opacity:0.372" fill="#000000" d="M 135.5,131.5 C 136.601,132.848 137.601,134.348 138.5,136C 136.989,137.615 135.656,137.615 134.5,136C 135.38,134.644 135.714,133.144 135.5,131.5 Z"/></g>
<g><path style="opacity:0.004" fill="#000000" d="M 413.5,147.5 C 414.833,148.167 414.833,148.167 413.5,147.5 Z"/></g>
<g><path style="opacity:1" fill="#fefffe" d="M 190.5,168.5 C 191.251,167.427 192.251,167.26 193.5,168C 192.62,169.356 192.286,170.856 192.5,172.5C 188.901,172.738 188.567,171.738 191.5,169.5C 191.376,168.893 191.043,168.56 190.5,168.5 Z"/></g>
<g><path style="opacity:0.525" fill="#000000" d="M 35.5,207.5 C 37.8039,196.888 42.3039,187.221 49,178.5C 44.5283,188.114 40.0283,197.78 35.5,207.5 Z"/></g>
<g><path style="opacity:0.039" fill="#000000" d="M 44.5,206.5 C 45.2389,206.369 45.9056,206.536 46.5,207C 45.8448,208.487 44.8448,209.653 43.5,210.5C 43.1667,210.167 42.8333,209.833 42.5,209.5C 43.6119,208.735 44.2786,207.735 44.5,206.5 Z"/></g>
<g><path style="opacity:0.071" fill="#000000" d="M 35.5,207.5 C 34.8333,208.167 34.8333,208.167 35.5,207.5 Z"/></g>
<g><path style="opacity:0.529" fill="#000000" d="M 36.5,221.5 C 37.1472,223.791 37.3139,226.458 37,229.5C 36.1305,232.267 34.9639,234.934 33.5,237.5C 33.7093,238.086 34.0426,238.586 34.5,239C 32.8991,244.491 31.2324,249.991 29.5,255.5C 28.4755,243.626 30.8088,232.293 36.5,221.5 Z"/></g>
<g><path style="opacity:0.031" fill="#000000" d="M 460.5,228.5 C 461.525,228.897 461.692,229.563 461,230.5C 460.536,229.906 460.369,229.239 460.5,228.5 Z"/></g>
<g><path style="opacity:0.326" fill="#000000" d="M 463.5,239.5 C 462.387,238.054 462.22,236.387 463,234.5C 463.494,236.134 463.66,237.801 463.5,239.5 Z"/></g>
<g><path style="opacity:0.008" fill="#000000" d="M 463.5,239.5 C 464.833,240.167 464.833,240.167 463.5,239.5 Z"/></g>
<g><path style="opacity:0.216" fill="#000000" d="M 464.5,259.5 C 465.653,265.319 465.819,271.319 465,277.5C 464.64,279.608 463.973,281.608 463,283.5C 463.071,275.491 463.571,267.491 464.5,259.5 Z"/></g>
<g><path style="opacity:0.647" fill="#000000" d="M 452.5,299.5 C 459.518,301.681 464.518,306.181 467.5,313C 466.603,316.783 466.603,320.45 467.5,324C 465.308,325.359 463.641,327.192 462.5,329.5C 461.675,330.386 460.675,330.719 459.5,330.5C 459.256,333.263 457.923,335.429 455.5,337C 450.081,339.338 444.748,339.505 439.5,337.5C 438.722,335.2 437.722,333.034 436.5,331C 436.75,327.166 436.75,322.999 436.5,318.5C 438.839,313.163 441.173,307.83 443.5,302.5C 446.515,301.182 449.515,300.182 452.5,299.5 Z"/></g>
<g><path style="opacity:0.282" fill="#000000" d="M 98.5,375.5 C 101.14,376.794 101.14,378.127 98.5,379.5C 98.0941,378.443 98.0941,377.109 98.5,375.5 Z"/></g>
<g><path style="opacity:0.016" fill="#000000" d="M 179.5,451.5 C 180.833,452.167 180.833,452.167 179.5,451.5 Z"/></g>
</svg>
